<svg id="Layer_1" data-name="Layer 1" xmlns="http://www.w3.org/2000/svg" xmlns:xlink="http://www.w3.org/1999/xlink" width="140.48" height="57.69" viewBox="0 0 140.48 57.69"><defs><style>.cls-1{fill:none;}.cls-2{clip-path:url(#clip-path);}.cls-3{fill:#cec4a8;}</style><clipPath id="clip-path" transform="translate(-0.23)"><rect class="cls-1" width="140.71" height="57.69"/></clipPath></defs><title>divider</title><g class="cls-2"><path class="cls-3" d="M134.37,31c-3.55,0-6,2.11-6,5.13a4.21,4.21,0,0,0,4,4.48c2.24,0,3.26-1.45,3.26-2.79a3,3,0,0,0-2.84-2.84,1.12,1.12,0,0,0-1.17.75,1.06,1.06,0,0,0,1,1.36,0.87,0.87,0,0,1,.88.73c0,0.59-.72.68-1.15,0.68a2.13,2.13,0,0,1-1.89-2.36c0-2.23,2.11-3,3.92-3a4.53,4.53,0,0,1,4.23,4.58c0,2.58-1.76,5.18-5.68,5.18-3.35,0-9.92-5-16.88-10.26-9.55-7.24-20.37-15.45-28.55-15.45s-13.1,3.35-15.17,7.6V15.14H71.44a6.49,6.49,0,0,1,2.1-3.89c0.87-.46.77-1.18,0-1.84C71.29,7.57,70.93,1.64,70.93.92S70.93,0,70.47,0,70,0.2,70,.92,69.65,7.57,67.4,9.41c-0.77.66-.87,1.38,0,1.84a6.49,6.49,0,0,1,2.1,3.89H68.63v9.59c-2.07-4.25-7-7.6-15.17-7.6s-19,8.21-28.55,15.45C17.94,37.86,11.37,42.84,8,42.84c-3.93,0-5.68-2.6-5.68-5.18a4.53,4.53,0,0,1,4.23-4.58c1.81,0,3.92.79,3.92,3A2.13,2.13,0,0,1,8.6,38.47c-0.43,0-1.15-.09-1.15-0.68a0.87,0.87,0,0,1,.88-0.73,1.06,1.06,0,0,0,1-1.36,1.12,1.12,0,0,0-1.17-.75,3,3,0,0,0-2.84,2.84c0,1.34,1,2.79,3.26,2.79a4.21,4.21,0,0,0,4-4.48c0-3-2.48-5.13-6-5.13A6.69,6.69,0,0,0,.23,37.66C0.23,41.17,2.67,45,8,45c4.06,0,10.59-5,18.16-10.69,9.28-7,19.81-15,27.27-15,10.5,0,14.23,5.68,14.23,10.55,0,5.94-3.15,11.94-10.19,11.94A8.7,8.7,0,0,1,48.8,33,6.26,6.26,0,0,1,55,26.78a4.43,4.43,0,0,1,4.43,4.42,1.23,1.23,0,0,1-.11.49c-1.77,4-5,2.63-5,.54A1.26,1.26,0,0,1,55.65,31a0.7,0.7,0,0,1,.68.7,1.06,1.06,0,0,0,1.33,1,1.1,1.1,0,0,0,.77-1.14,2.87,2.87,0,0,0-4.87-1.89,3.29,3.29,0,0,0-1.29,2.47c-0.1,3.55,4.3,6.14,7.9,2.49a4.75,4.75,0,0,0,1.4-3.09A6.55,6.55,0,0,0,55,24.67,8.38,8.38,0,0,0,46.68,33a10.81,10.81,0,0,0,10.8,10.8,11.68,11.68,0,0,0,11.14-7.71v6.41H69.5a6.49,6.49,0,0,1-2.1,3.89c-0.87.46-.77,1.18,0,1.84C69.65,50.12,70,56,70,56.76s0,0.92.46,0.92,0.46-.2.46-0.92,0.36-6.65,2.61-8.49c0.77-.66.87-1.38,0-1.84a6.49,6.49,0,0,1-2.1-3.89h0.87V36.13a11.69,11.69,0,0,0,11.14,7.71A10.81,10.81,0,0,0,94.25,33a8.38,8.38,0,0,0-8.37-8.37,6.55,6.55,0,0,0-6.53,6.85,4.74,4.74,0,0,0,1.4,3.09c3.6,3.65,8,1.06,7.9-2.49a3.3,3.3,0,0,0-1.29-2.47,2.87,2.87,0,0,0-4.87,1.89,1.1,1.1,0,0,0,.77,1.14,1.06,1.06,0,0,0,1.33-1,0.7,0.7,0,0,1,.68-0.7,1.26,1.26,0,0,1,1.26,1.26c0,2.1-3.2,3.46-5-.53a1.24,1.24,0,0,1-.11-0.5,4.43,4.43,0,0,1,4.43-4.42A6.26,6.26,0,0,1,92.14,33a8.7,8.7,0,0,1-8.69,8.69c-7,0-10.19-6-10.19-11.94,0-4.87,3.73-10.55,14.23-10.55,7.46,0,18,8,27.27,15C122.32,40,128.85,45,132.91,45c5.36,0,7.8-3.78,7.8-7.29A6.69,6.69,0,0,0,134.37,31Z" transform="translate(-0.23)"/></g></svg>